<svg width="202" height="25" xmlns="http://www.w3.org/2000/svg" xmlns:xlink="http://www.w3.org/1999/xlink" overflow="hidden"><defs><clipPath id="clip0"><rect x="1352" y="728" width="202" height="25"/></clipPath></defs><g clip-path="url(#clip0)" transform="translate(-1352 -728)"><path d="M11.5347 15.4444C10.7209 14.955 9.72723 14.5481 8.55666 14.2208 7.38314 13.8935 6.21847 13.5073 5.05674 13.065 3.89502 12.6197 2.90431 11.8885 2.08756 10.8683 1.26787 9.84517 0.858025 8.55371 0.858025 6.98804 0.858025 5.05674 1.63939 3.41146 3.20506 2.04629 4.77073 0.681112 6.80228 0 9.30559 0 10.2933 0 11.2457 0.114993 12.1657 0.34203 13.0856 0.569068 13.8404 0.834436 14.4301 1.14108 15.0199 1.44478 15.5358 1.75733 15.9781 2.07282 16.4204 2.38832 16.7389 2.66253 16.9276 2.89546L17.2313 3.22865 14.1353 6.47499C13.9997 6.31872 13.8139 6.12706 13.5721 5.90002 13.3303 5.67299 12.8232 5.36929 12.0507 4.99188 11.2752 4.61446 10.4791 4.42576 9.66236 4.42576 8.6746 4.42576 7.88144 4.67638 7.28289 5.17468 6.68139 5.67299 6.38358 6.27744 6.38358 6.98804 6.38358 7.78709 6.79048 8.42692 7.60428 8.91048 8.41808 9.39404 9.40584 9.80094 10.5646 10.1341 11.7234 10.4673 12.891 10.8565 14.0645 11.2988 15.238 11.744 16.2317 12.4753 17.0514 13.4955 17.8711 14.5157 18.2809 15.8101 18.2809 17.3728 18.2809 19.5812 17.4701 21.3828 15.8484 22.7804 14.2267 24.178 11.9917 24.8768 9.14342 24.8768 8.02297 24.8768 6.93496 24.7412 5.88823 24.4699 4.83855 24.1987 3.97463 23.8743 3.29647 23.4969 2.6183 23.1195 2.01975 22.7362 1.50375 22.3499 0.98776 21.9637 0.616244 21.6334 0.392156 21.3681L0 20.9523 3.11366 17.8888C3.26993 18.0657 3.49107 18.2957 3.77708 18.5787 4.06309 18.8618 4.69997 19.2422 5.68773 19.7198 6.67549 20.1975 7.70748 20.4363 8.7837 20.4363 10.028 20.4363 11.001 20.1474 11.7027 19.5724 12.4045 18.9945 12.7554 18.2632 12.7554 17.3757 12.7554 16.5737 12.3485 15.931 11.5347 15.4444Z" transform="matrix(1 0 0 1.00483 1352.52 728)"/><path d="M65.717 0.238832C68.2233 0.238832 70.302 1.02904 71.9502 2.60651 73.6014 4.18692 74.424 6.1418 74.424 8.47115 74.424 10.8005 73.6014 12.7583 71.9591 14.3358 70.3138 15.9162 68.2351 16.7035 65.717 16.7035L60.6839 16.7035 60.6839 24.7589 55.4443 24.7589 55.4443 0.238832 65.717 0.238832ZM60.6839 4.97713 60.6839 11.9711 65.549 11.9711C66.5927 11.9711 67.4626 11.6349 68.1584 10.9627 68.8543 10.2904 69.2051 9.46481 69.2051 8.48294 69.2051 7.50108 68.8572 6.67254 68.1584 5.99438 67.4596 5.31621 66.5898 4.97713 65.549 4.97713L60.6839 4.97713Z" transform="matrix(1 0 0 1.00483 1352.52 728)"/><path d="M92.2214 0.238832C94.7277 0.238832 96.8035 1.02904 98.4546 2.60651 100.106 4.18692 100.928 6.1418 100.928 8.47115 100.928 10.8005 100.106 12.7583 98.4635 14.3358 96.8182 15.9162 94.7395 16.7035 92.2214 16.7035L87.1883 16.7035 87.1883 24.7589 81.9487 24.7589 81.9487 0.238832 92.2214 0.238832ZM87.1853 4.97713 87.1853 11.9711 92.0504 11.9711C93.0942 11.9711 93.964 11.6349 94.6599 10.9627 95.3557 10.2904 95.7066 9.46481 95.7066 8.48294 95.7066 7.50108 95.3587 6.67254 94.6599 5.99438 93.9611 5.31621 93.0912 4.97713 92.0504 4.97713L87.1853 4.97713Z" transform="matrix(1 0 0 1.00483 1352.52 728)"/><path d="M169.736 15.5742C170.328 15.238 170.874 14.8282 171.381 14.3387 171.434 14.2886 171.481 14.2385 171.531 14.1913L171.549 14.1736C173.079 12.6256 173.846 10.7238 173.846 8.47705 173.846 6.14475 173.02 4.18987 171.369 2.6124 169.721 1.03199 167.642 0.24178 165.136 0.24178L154.863 0.24178 154.863 24.7677 160.106 24.7677 160.106 16.7094 164.921 16.7094 169.326 24.7648 174.904 24.7648 169.736 15.5742ZM160.106 11.9711 160.106 4.97713 164.968 4.97713C166.012 4.97713 166.881 5.31621 167.58 5.99438 167.751 6.1595 167.899 6.33346 168.028 6.51627 168.255 6.84061 168.418 7.19148 168.515 7.57479 168.589 7.8608 168.627 8.1645 168.627 8.48294 168.627 9.11098 168.485 9.67415 168.196 10.1725 168.196 10.1784 168.193 10.1813 168.191 10.1843 168.031 10.4614 167.831 10.7209 167.583 10.9627 166.884 11.6349 166.014 11.9711 164.971 11.9711L160.106 11.9711Z" transform="matrix(1 0 0 1.00483 1352.52 728)"/><path d="M139.616 0.238832 144.856 0.238832 144.856 24.7618 139.616 24.7618 139.616 0.238832Z" transform="matrix(1 0 0 1.00483 1352.52 728)"/><path d="M124.352 0.277163 124.352 9.56506 124.352 9.56506 124.352 9.75082 113.92 9.75082 113.923 0.274214 108.683 0.274214 108.683 24.7972 113.923 24.7972 113.923 14.383 124.352 14.383 124.352 24.8002 129.591 24.8002 129.591 0.277163Z" transform="matrix(1 0 0 1.00483 1352.52 728)"/><path d="M187.899 20.0412 187.899 16.9482 187.899 14.38 188.37 14.38 197.812 14.38 197.812 9.70954 187.899 9.70954 187.899 7.80478 187.899 4.97713 200.604 4.97713 200.604 0.238832 182.659 0.238832 182.659 24.7648 200.958 24.7648 200.958 20.0412Z" transform="matrix(1 0 0 1.00483 1352.52 728)"/><path d="M38.7173 0.24178 33.2654 0.24178 23.8596 24.7736 29.3291 24.7736 31.3813 18.9915 40.6014 18.9915 42.6536 24.7736 48.1231 24.7736 38.7173 0.24178ZM36.0016 6.38358 38.8824 14.38 33.1062 14.38 36.0016 6.38358Z" transform="matrix(1 0 0 1.00483 1352.52 728)"/></g></svg>